STARTFONT 2.1
COMMENT
COMMENT Converted from OpenType font "Formula1-Bold_web_0.ttf" by "otf2bdf 3.0".
COMMENT
FONT -FreeType-Formula1 Display Bold-Bold-R-Normal--14-140-72-72-P-83-ISO10646-1
SIZE 14 72 72
FONTBOUNDINGBOX 17 16 0 -3
STARTPROPERTIES 19
FOUNDRY "FreeType"
FAMILY_NAME "Formula1 Display Bold"
WEIGHT_NAME "Bold"
SLANT "R"
SETWIDTH_NAME "Normal"
ADD_STYLE_NAME ""
PIXEL_SIZE 14
POINT_SIZE 140
RESOLUTION_X 72
RESOLUTION_Y 72
SPACING "P"
AVERAGE_WIDTH 83
CHARSET_REGISTRY "ISO10646"
CHARSET_ENCODING "1"
FONT_ASCENT 11
FONT_DESCENT 2
COPYRIGHT "Copyright (c) 2017 Marc Rouault / W+K. All rights reserved."
_OTF_FONTFILE "Formula1-Bold_web_0.ttf"
_OTF_PSNAME "Formula1-Display-Bold"
ENDPROPERTIES
CHARS 95
STARTCHAR 0020
ENCODING 32
SWIDTH 214 0
DWIDTH 3 0
BBX 0 0 0 0
BITMAP
ENDCHAR
STARTCHAR 0021
ENCODING 33
SWIDTH 357 0
DWIDTH 5 0
BBX 3 11 1 0
BITMAP
E0
E0
E0
E0
E0
E0
E0
00
E0
E0
E0
ENDCHAR
STARTCHAR 0022
ENCODING 34
SWIDTH 571 0
DWIDTH 8 0
BBX 6 4 1 7
BITMAP
DC
D8
D8
D8
ENDCHAR
STARTCHAR 0023
ENCODING 35
SWIDTH 857 0
DWIDTH 12 0
BBX 10 11 1 0
BITMAP
1980
1980
7FC0
7FC0
3300
3300
FF80
FF80
6600
6600
6C00
ENDCHAR
STARTCHAR 0024
ENCODING 36
SWIDTH 785 0
DWIDTH 11 0
BBX 9 14 1 -1
BITMAP
0800
0800
7F80
FF80
C800
E800
FC00
7F00
1F80
0B80
0B80
FF00
FE00
0800
ENDCHAR
STARTCHAR 0025
ENCODING 37
SWIDTH 857 0
DWIDTH 12 0
BBX 10 11 1 0
BITMAP
F0C0
F980
9980
FB80
F300
0000
33C0
77C0
66C0
E7C0
C3C0
ENDCHAR
STARTCHAR 0026
ENCODING 38
SWIDTH 785 0
DWIDTH 11 0
BBX 11 11 0 0
BITMAP
1F80
3F80
3800
3800
3CE0
7EC0
67C0
E780
6380
7FC0
3EE0
ENDCHAR
STARTCHAR 0027
ENCODING 39
SWIDTH 285 0
DWIDTH 4 0
BBX 2 4 1 7
BITMAP
C0
C0
C0
C0
ENDCHAR
STARTCHAR 0028
ENCODING 40
SWIDTH 428 0
DWIDTH 6 0
BBX 4 13 1 -2
BITMAP
30
70
E0
E0
E0
E0
E0
E0
E0
E0
E0
70
30
ENDCHAR
STARTCHAR 0029
ENCODING 41
SWIDTH 428 0
DWIDTH 6 0
BBX 4 13 1 -2
BITMAP
E0
F0
70
70
70
70
70
70
70
70
70
F0
E0
ENDCHAR
STARTCHAR 002A
ENCODING 42
SWIDTH 500 0
DWIDTH 7 0
BBX 5 5 1 6
BITMAP
D8
70
F8
70
D8
ENDCHAR
STARTCHAR 002B
ENCODING 43
SWIDTH 571 0
DWIDTH 8 0
BBX 7 7 1 2
BITMAP
30
30
FE
FE
30
30
30
ENDCHAR
STARTCHAR 002C
ENCODING 44
SWIDTH 285 0
DWIDTH 4 0
BBX 3 5 0 -2
BITMAP
60
60
60
60
E0
ENDCHAR
STARTCHAR 002D
ENCODING 45
SWIDTH 357 0
DWIDTH 5 0
BBX 3 2 1 3
BITMAP
E0
E0
ENDCHAR
STARTCHAR 002E
ENCODING 46
SWIDTH 357 0
DWIDTH 5 0
BBX 3 3 1 0
BITMAP
E0
E0
E0
ENDCHAR
STARTCHAR 002F
ENCODING 47
SWIDTH 357 0
DWIDTH 5 0
BBX 5 12 0 -1
BITMAP
18
18
38
38
30
30
70
70
60
60
60
E0
ENDCHAR
STARTCHAR 0030
ENCODING 48
SWIDTH 857 0
DWIDTH 12 0
BBX 10 11 1 0
BITMAP
3F00
7F80
E1C0
E1C0
E1C0
E1C0
E1C0
E1C0
E1C0
7F80
3F00
ENDCHAR
STARTCHAR 0031
ENCODING 49
SWIDTH 642 0
DWIDTH 9 0
BBX 7 11 1 0
BITMAP
F0
F8
38
38
38
38
38
38
38
FE
FE
ENDCHAR
STARTCHAR 0032
ENCODING 50
SWIDTH 714 0
DWIDTH 10 0
BBX 9 11 0 0
BITMAP
7F00
7F80
0380
0380
0F80
3F00
7C00
7000
E000
FF80
FF80
ENDCHAR
STARTCHAR 0033
ENCODING 51
SWIDTH 714 0
DWIDTH 10 0
BBX 8 11 1 0
BITMAP
FF
FF
0F
1C
38
7F
7F
03
03
FF
FE
ENDCHAR
STARTCHAR 0034
ENCODING 52
SWIDTH 785 0
DWIDTH 11 0
BBX 11 11 0 0
BITMAP
0780
0F80
1D80
3980
3980
7180
E180
FFE0
7FE0
0180
0180
ENDCHAR
STARTCHAR 0035
ENCODING 53
SWIDTH 714 0
DWIDTH 10 0
BBX 8 11 1 0
BITMAP
FF
FF
C0
C0
FE
FF
07
03
03
FF
FE
ENDCHAR
STARTCHAR 0036
ENCODING 54
SWIDTH 785 0
DWIDTH 11 0
BBX 9 11 1 0
BITMAP
3F80
7F80
E000
E000
FF00
FF80
E380
E380
E380
FF80
3F00
ENDCHAR
STARTCHAR 0037
ENCODING 55
SWIDTH 714 0
DWIDTH 10 0
BBX 9 11 0 0
BITMAP
FF80
FF80
0380
0380
0700
0700
0E00
0E00
1C00
3800
3800
ENDCHAR
STARTCHAR 0038
ENCODING 56
SWIDTH 785 0
DWIDTH 11 0
BBX 10 11 0 0
BITMAP
3F80
7FC0
61C0
61C0
7F80
7F80
61C0
E1C0
E1C0
7FC0
3F80
ENDCHAR
STARTCHAR 0039
ENCODING 57
SWIDTH 785 0
DWIDTH 11 0
BBX 9 11 1 0
BITMAP
7E00
FF00
E380
C380
E380
FF80
7F80
0380
0380
FF00
FE00
ENDCHAR
STARTCHAR 003A
ENCODING 58
SWIDTH 357 0
DWIDTH 5 0
BBX 3 3 1 0
BITMAP
E0
E0
E0
ENDCHAR
STARTCHAR 003B
ENCODING 59
SWIDTH 285 0
DWIDTH 4 0
BBX 3 5 0 -2
BITMAP
60
60
60
60
E0
ENDCHAR
STARTCHAR 003C
ENCODING 60
SWIDTH 500 0
DWIDTH 7 0
BBX 4 7 1 2
BITMAP
10
30
70
E0
F0
70
10
ENDCHAR
STARTCHAR 003D
ENCODING 61
SWIDTH 500 0
DWIDTH 7 0
BBX 6 6 1 2
BITMAP
FC
FC
00
00
FC
FC
ENDCHAR
STARTCHAR 003E
ENCODING 62
SWIDTH 500 0
DWIDTH 7 0
BBX 5 7 1 2
BITMAP
80
C0
F0
38
78
E0
C0
ENDCHAR
STARTCHAR 003F
ENCODING 63
SWIDTH 642 0
DWIDTH 9 0
BBX 7 11 1 0
BITMAP
F8
FE
0E
0E
0E
7E
78
00
70
70
70
ENDCHAR
STARTCHAR 0040
ENCODING 64
SWIDTH 857 0
DWIDTH 12 0
BBX 10 10 1 0
BITMAP
FF00
FF80
01C0
7CC0
FCC0
CCC0
CCC0
CCC0
FFC0
7FC0
ENDCHAR
STARTCHAR 0041
ENCODING 65
SWIDTH 857 0
DWIDTH 12 0
BBX 12 11 0 0
BITMAP
0700
0F80
1F80
1D80
19C0
39C0
38E0
7FE0
7FE0
7070
E070
ENDCHAR
STARTCHAR 0042
ENCODING 66
SWIDTH 785 0
DWIDTH 11 0
BBX 10 11 1 0
BITMAP
FF00
FF80
E180
E180
FF80
FF80
E1C0
E1C0
E1C0
FF80
FF00
ENDCHAR
STARTCHAR 0043
ENCODING 67
SWIDTH 714 0
DWIDTH 10 0
BBX 9 11 1 0
BITMAP
3F80
7F80
E000
E000
E000
E000
E000
E000
E000
7F80
3F80
ENDCHAR
STARTCHAR 0044
ENCODING 68
SWIDTH 857 0
DWIDTH 12 0
BBX 10 11 1 0
BITMAP
FF00
FF80
E1C0
E1C0
E1C0
E1C0
E1C0
E1C0
E1C0
FF80
FF00
ENDCHAR
STARTCHAR 0045
ENCODING 69
SWIDTH 714 0
DWIDTH 10 0
BBX 9 11 1 0
BITMAP
FF80
FF80
E000
E000
FF80
FF80
E000
E000
E000
FF80
FF80
ENDCHAR
STARTCHAR 0046
ENCODING 70
SWIDTH 714 0
DWIDTH 10 0
BBX 8 11 1 0
BITMAP
FF
FF
E0
E0
E0
FF
FF
E0
E0
E0
E0
ENDCHAR
STARTCHAR 0047
ENCODING 71
SWIDTH 857 0
DWIDTH 12 0
BBX 10 11 1 0
BITMAP
3FC0
7FC0
E000
E000
E7C0
E7C0
E0C0
E0C0
E1C0
7FC0
3F80
ENDCHAR
STARTCHAR 0048
ENCODING 72
SWIDTH 857 0
DWIDTH 12 0
BBX 10 11 1 0
BITMAP
E0C0
E0C0
E0C0
E0C0
FFC0
FFC0
E0C0
E0C0
E0C0
E0C0
E0C0
ENDCHAR
STARTCHAR 0049
ENCODING 73
SWIDTH 357 0
DWIDTH 5 0
BBX 3 11 1 0
BITMAP
E0
E0
E0
E0
E0
E0
E0
E0
E0
E0
E0
ENDCHAR
STARTCHAR 004A
ENCODING 74
SWIDTH 642 0
DWIDTH 9 0
BBX 7 11 1 0
BITMAP
0E
0E
0E
0E
0E
0E
0E
0E
1E
FC
F8
ENDCHAR
STARTCHAR 004B
ENCODING 75
SWIDTH 785 0
DWIDTH 11 0
BBX 10 11 1 0
BITMAP
E3C0
E380
E700
EE00
FC00
FC00
EE00
E700
E700
E380
E1C0
ENDCHAR
STARTCHAR 004C
ENCODING 76
SWIDTH 642 0
DWIDTH 9 0
BBX 8 11 1 0
BITMAP
E0
E0
E0
E0
E0
E0
E0
E0
E0
FF
FF
ENDCHAR
STARTCHAR 004D
ENCODING 77
SWIDTH 1142 0
DWIDTH 16 0
BBX 15 11 1 0
BITMAP
7838
7C7C
FCFC
ECFC
ECEC
ECCC
EECC
CECC
CECC
C7CE
C38E
ENDCHAR
STARTCHAR 004E
ENCODING 78
SWIDTH 1000 0
DWIDTH 14 0
BBX 12 11 1 0
BITMAP
7870
FC70
FC70
EC70
EE70
EE70
E770
E770
E3F0
E3E0
E1E0
ENDCHAR
STARTCHAR 004F
ENCODING 79
SWIDTH 857 0
DWIDTH 12 0
BBX 11 11 1 0
BITMAP
3F00
7FC0
E1C0
E0E0
E0E0
E0E0
E0E0
E0E0
E1C0
7FC0
3F00
ENDCHAR
STARTCHAR 0050
ENCODING 80
SWIDTH 785 0
DWIDTH 11 0
BBX 9 11 1 0
BITMAP
FF00
FF80
E380
E180
E380
FF80
FF00
E000
E000
E000
E000
ENDCHAR
STARTCHAR 0051
ENCODING 81
SWIDTH 857 0
DWIDTH 12 0
BBX 11 13 1 -2
BITMAP
3F00
7FC0
E1C0
E0E0
E0E0
E0E0
E0E0
E0E0
E1C0
7FC0
3F00
0700
0380
ENDCHAR
STARTCHAR 0052
ENCODING 82
SWIDTH 785 0
DWIDTH 11 0
BBX 10 11 1 0
BITMAP
FF80
FFC0
E1C0
E1C0
E1C0
EFC0
FF80
EE00
E700
E380
E3C0
ENDCHAR
STARTCHAR 0053
ENCODING 83
SWIDTH 785 0
DWIDTH 11 0
BBX 9 11 1 0
BITMAP
7F80
FF80
C000
E000
FE00
7F00
1F80
0380
0380
FF00
FE00
ENDCHAR
STARTCHAR 0054
ENCODING 84
SWIDTH 785 0
DWIDTH 11 0
BBX 11 11 0 0
BITMAP
FFE0
FFE0
0E00
0E00
0E00
0E00
0E00
0E00
0E00
0E00
0E00
ENDCHAR
STARTCHAR 0055
ENCODING 85
SWIDTH 857 0
DWIDTH 12 0
BBX 10 11 1 0
BITMAP
E1C0
E1C0
E1C0
E1C0
E1C0
E1C0
E1C0
E1C0
E1C0
7F80
3F00
ENDCHAR
STARTCHAR 0056
ENCODING 86
SWIDTH 785 0
DWIDTH 11 0
BBX 11 11 0 0
BITMAP
E0E0
70E0
70C0
71C0
31C0
39C0
3980
1B80
1B80
1F00
0E00
ENDCHAR
STARTCHAR 0057
ENCODING 87
SWIDTH 1214 0
DWIDTH 17 0
BBX 17 11 0 0
BITMAP
E1C380
E3E380
636300
736300
777700
777700
777700
763700
363600
3E3E00
1C1C00
ENDCHAR
STARTCHAR 0058
ENCODING 88
SWIDTH 857 0
DWIDTH 12 0
BBX 12 11 0 0
BITMAP
F0F0
71E0
39C0
1F80
1F00
0F00
1F00
1F80
39C0
70E0
F0F0
ENDCHAR
STARTCHAR 0059
ENCODING 89
SWIDTH 785 0
DWIDTH 11 0
BBX 11 11 0 0
BITMAP
F0E0
71C0
39C0
3B80
1F80
1F00
0E00
0E00
0E00
0E00
0E00
ENDCHAR
STARTCHAR 005A
ENCODING 90
SWIDTH 714 0
DWIDTH 10 0
BBX 10 11 0 0
BITMAP
7F80
7FC0
01C0
0780
0F80
3F00
7C00
F000
E000
FF80
7F80
ENDCHAR
STARTCHAR 005B
ENCODING 91
SWIDTH 428 0
DWIDTH 6 0
BBX 4 13 1 -2
BITMAP
F0
F0
E0
E0
E0
E0
E0
E0
E0
E0
E0
F0
F0
ENDCHAR
STARTCHAR 005C
ENCODING 92
SWIDTH 357 0
DWIDTH 5 0
BBX 5 12 0 -1
BITMAP
E0
E0
60
60
70
70
30
30
30
38
38
18
ENDCHAR
STARTCHAR 005D
ENCODING 93
SWIDTH 428 0
DWIDTH 6 0
BBX 4 13 1 -2
BITMAP
F0
F0
70
70
70
70
70
70
70
70
70
F0
F0
ENDCHAR
STARTCHAR 005E
ENCODING 94
SWIDTH 714 0
DWIDTH 10 0
BBX 6 3 2 5
BITMAP
30
78
FC
ENDCHAR
STARTCHAR 005F
ENCODING 95
SWIDTH 428 0
DWIDTH 6 0
BBX 6 2 0 -3
BITMAP
FC
FC
ENDCHAR
STARTCHAR 0060
ENCODING 96
SWIDTH 714 0
DWIDTH 10 0
BBX 3 3 3 10
BITMAP
C0
E0
60
ENDCHAR
STARTCHAR 0061
ENCODING 97
SWIDTH 714 0
DWIDTH 10 0
BBX 9 9 0 0
BITMAP
7E00
7F00
0780
1F80
3B80
7380
E380
7F80
7F80
ENDCHAR
STARTCHAR 0062
ENCODING 98
SWIDTH 785 0
DWIDTH 11 0
BBX 9 11 1 0
BITMAP
C000
C000
FF00
FF00
C380
C380
C380
C380
C380
FF00
FF00
ENDCHAR
STARTCHAR 0063
ENCODING 99
SWIDTH 642 0
DWIDTH 9 0
BBX 7 9 1 0
BITMAP
7E
FE
E0
C0
C0
C0
E0
FE
7E
ENDCHAR
STARTCHAR 0064
ENCODING 100
SWIDTH 785 0
DWIDTH 11 0
BBX 9 11 1 0
BITMAP
0380
0380
7F80
FF80
E380
C380
C380
C380
E380
FF80
7F80
ENDCHAR
STARTCHAR 0065
ENCODING 101
SWIDTH 714 0
DWIDTH 10 0
BBX 8 9 1 0
BITMAP
7E
FF
C3
FF
FF
C0
E0
FF
7F
ENDCHAR
STARTCHAR 0066
ENCODING 102
SWIDTH 500 0
DWIDTH 7 0
BBX 7 12 0 0
BITMAP
1E
3E
30
FE
FE
30
30
30
30
30
30
30
ENDCHAR
STARTCHAR 0067
ENCODING 103
SWIDTH 714 0
DWIDTH 10 0
BBX 9 11 1 -2
BITMAP
7F80
FF80
C380
C380
C380
E380
FF80
7F80
0300
FF00
FE00
ENDCHAR
STARTCHAR 0068
ENCODING 104
SWIDTH 714 0
DWIDTH 10 0
BBX 9 11 1 0
BITMAP
C000
C000
FE00
FF00
C300
C300
C380
C380
C380
C380
C380
ENDCHAR
STARTCHAR 0069
ENCODING 105
SWIDTH 357 0
DWIDTH 5 0
BBX 3 11 1 0
BITMAP
E0
E0
E0
E0
E0
E0
E0
E0
E0
E0
E0
ENDCHAR
STARTCHAR 006A
ENCODING 106
SWIDTH 285 0
DWIDTH 4 0
BBX 4 13 0 -2
BITMAP
70
70
70
70
70
70
70
70
70
70
60
E0
C0
ENDCHAR
STARTCHAR 006B
ENCODING 107
SWIDTH 714 0
DWIDTH 10 0
BBX 9 11 1 0
BITMAP
C000
C000
C380
C700
CE00
CC00
FC00
FC00
CE00
C700
C780
ENDCHAR
STARTCHAR 006C
ENCODING 108
SWIDTH 357 0
DWIDTH 5 0
BBX 3 11 1 0
BITMAP
E0
E0
E0
E0
E0
E0
E0
E0
E0
E0
E0
ENDCHAR
STARTCHAR 006D
ENCODING 109
SWIDTH 1071 0
DWIDTH 15 0
BBX 13 9 1 0
BITMAP
FFF0
FFF8
C718
C718
C718
C718
C718
C718
C718
ENDCHAR
STARTCHAR 006E
ENCODING 110
SWIDTH 714 0
DWIDTH 10 0
BBX 9 9 1 0
BITMAP
FE00
FF00
C300
C300
C380
C380
C380
C380
C380
ENDCHAR
STARTCHAR 006F
ENCODING 111
SWIDTH 714 0
DWIDTH 10 0
BBX 9 9 1 0
BITMAP
7E00
FF00
E300
C380
C380
C380
E300
FF00
7E00
ENDCHAR
STARTCHAR 0070
ENCODING 112
SWIDTH 785 0
DWIDTH 11 0
BBX 9 11 1 -2
BITMAP
FF00
FF00
C380
C380
C380
C380
C380
FF00
FF00
C000
C000
ENDCHAR
STARTCHAR 0071
ENCODING 113
SWIDTH 785 0
DWIDTH 11 0
BBX 9 11 1 -2
BITMAP
7F80
FF80
E380
C380
C380
C380
E380
FF80
7F80
0380
0380
ENDCHAR
STARTCHAR 0072
ENCODING 114
SWIDTH 500 0
DWIDTH 7 0
BBX 6 9 1 0
BITMAP
7C
FC
E0
C0
C0
C0
C0
C0
C0
ENDCHAR
STARTCHAR 0073
ENCODING 115
SWIDTH 642 0
DWIDTH 9 0
BBX 7 9 1 0
BITMAP
7E
FE
C0
F8
FE
3E
06
FE
FC
ENDCHAR
STARTCHAR 0074
ENCODING 116
SWIDTH 571 0
DWIDTH 8 0
BBX 7 11 0 0
BITMAP
30
30
FE
FE
70
70
70
70
30
3E
1E
ENDCHAR
STARTCHAR 0075
ENCODING 117
SWIDTH 714 0
DWIDTH 10 0
BBX 9 9 1 0
BITMAP
C380
C380
C380
C380
C380
C380
E380
FF80
7F80
ENDCHAR
STARTCHAR 0076
ENCODING 118
SWIDTH 714 0
DWIDTH 10 0
BBX 10 9 0 0
BITMAP
E1C0
6180
7180
7380
3300
3B00
3F00
1E00
0E00
ENDCHAR
STARTCHAR 0077
ENCODING 119
SWIDTH 1071 0
DWIDTH 15 0
BBX 15 9 0 0
BITMAP
E38E
E7CE
66CC
66CC
76EC
76FC
7EFC
3C7C
3C78
ENDCHAR
STARTCHAR 0078
ENCODING 120
SWIDTH 714 0
DWIDTH 10 0
BBX 10 9 0 0
BITMAP
F1C0
7380
3F00
1F00
1E00
1F00
3F00
7380
F1C0
ENDCHAR
STARTCHAR 0079
ENCODING 121
SWIDTH 714 0
DWIDTH 10 0
BBX 10 11 0 -2
BITMAP
E1C0
7180
7380
3380
3B00
3F00
1F00
0600
0E00
7C00
7800
ENDCHAR
STARTCHAR 007A
ENCODING 122
SWIDTH 642 0
DWIDTH 9 0
BBX 8 9 1 0
BITMAP
FE
FF
07
1F
7E
F8
C0
FF
7F
ENDCHAR
STARTCHAR 007B
ENCODING 123
SWIDTH 428 0
DWIDTH 6 0
BBX 5 13 0 -2
BITMAP
38
38
30
30
70
F0
E0
70
30
30
30
38
38
ENDCHAR
STARTCHAR 007C
ENCODING 124
SWIDTH 285 0
DWIDTH 4 0
BBX 2 13 1 -2
BITMAP
C0
C0
C0
C0
C0
C0
C0
C0
C0
C0
C0
C0
C0
ENDCHAR
STARTCHAR 007D
ENCODING 125
SWIDTH 428 0
DWIDTH 6 0
BBX 5 13 0 -2
BITMAP
E0
F0
30
30
30
38
38
30
30
30
30
F0
E0
ENDCHAR
STARTCHAR 007E
ENCODING 126
SWIDTH 857 0
DWIDTH 12 0
BBX 6 3 3 5
BITMAP
6C
FC
D8
ENDCHAR
ENDFONT
